<svg width="1200" height="760" viewBox="0 0 1200 760" fill="none" xmlns="http://www.w3.org/2000/svg">
  <rect width="1200" height="760" rx="48" fill="url(#bg)"/>
  <path d="M130 586C130 551.758 157.758 524 192 524H1008C1042.24 524 1070 551.758 1070 586V618C1070 652.242 1042.24 680 1008 680H192C157.758 680 130 652.242 130 618V586Z" fill="#183252"/>
  <path d="M208 430L572 166C590.735 152.408 615.976 152.231 634.9 165.559L1004 425V474H208V430Z" fill="#214564"/>
  <path d="M278 438L602 204L930 438H278Z" fill="#E2A13A">
    <animate attributeName="fill-opacity" values="0.92;1;0.92" dur="4s" repeatCount="indefinite"/>
  </path>
  <path d="M304 438L602 224L904 438H304Z" fill="#D18E2C">
    <animate attributeName="fill-opacity" values="0.9;1;0.9" dur="4s" begin="0.25s" repeatCount="indefinite"/>
  </path>
  <path d="M332 438L602 246L876 438H332Z" fill="#B9781E">
    <animate attributeName="fill-opacity" values="0.9;1;0.9" dur="4s" begin="0.5s" repeatCount="indefinite"/>
  </path>
  <rect x="382" y="438" width="440" height="112" rx="22" fill="#F7FBFE"/>
  <rect x="442" y="478" width="138" height="72" rx="16" fill="#8FCBE7"/>
  <rect x="620" y="472" width="144" height="78" rx="18" fill="#1A3052"/>
  <path d="M156 318C156 258.353 204.353 210 264 210C323.647 210 372 258.353 372 318C372 377.647 323.647 426 264 426C204.353 426 156 377.647 156 318Z" fill="#8FCBE7" fill-opacity="0.84"/>
  <path d="M240 264H288V306H330V354H288V396H240V354H198V306H240V264Z" fill="#1A3052">
    <animate attributeName="fill-opacity" values="0.72;1;0.72" dur="2.8s" repeatCount="indefinite"/>
  </path>
  <defs>
    <linearGradient id="bg" x1="120" y1="94" x2="1086" y2="678" gradientUnits="userSpaceOnUse">
      <stop stop-color="#F8FBFE"/>
      <stop offset="0.56" stop-color="#DEEDF7"/>
      <stop offset="1" stop-color="#BFD9EA"/>
    </linearGradient>
  </defs>
</svg>
