<svg width="1600" height="980" viewBox="0 0 1600 980" fill="none" xmlns="http://www.w3.org/2000/svg" role="img" aria-labelledby="title desc">
  <title id="title">Modern California home with rooftop solar panels</title>
  <desc id="desc">A modern single-family home with a clean roofline, rooftop solar panels, landscaping, and a bright California sky.</desc>
  <defs>
    <linearGradient id="sky" x1="800" y1="40" x2="800" y2="580" gradientUnits="userSpaceOnUse">
      <stop stop-color="#CFEAFA"/>
      <stop offset="1" stop-color="#F7FBFE"/>
    </linearGradient>
    <linearGradient id="ground" x1="800" y1="660" x2="800" y2="980" gradientUnits="userSpaceOnUse">
      <stop stop-color="#DDECD7"/>
      <stop offset="1" stop-color="#C6DDC1"/>
    </linearGradient>
    <linearGradient id="roof" x1="380" y1="338" x2="940" y2="338" gradientUnits="userSpaceOnUse">
      <stop stop-color="#183252"/>
      <stop offset="1" stop-color="#29496F"/>
    </linearGradient>
    <linearGradient id="panel" x1="0" y1="0" x2="1" y2="1">
      <stop stop-color="#132744"/>
      <stop offset="1" stop-color="#2E597F"/>
    </linearGradient>
    <linearGradient id="glass" x1="0" y1="0" x2="0" y2="1">
      <stop stop-color="#BFE3F4"/>
      <stop offset="1" stop-color="#89BCD8"/>
    </linearGradient>
    <filter id="shadow" x="180" y="218" width="1240" height="584" filterUnits="userSpaceOnUse" color-interpolation-filters="sRGB">
      <feDropShadow dx="0" dy="30" stdDeviation="28" flood-color="#1A3052" flood-opacity="0.16"/>
    </filter>
  </defs>

  <rect width="1600" height="980" fill="url(#sky)"/>
  <circle cx="1282" cy="156" r="54" fill="#E2A13A"/>
  <circle cx="1282" cy="156" r="76" fill="#E2A13A" fill-opacity="0.14"/>
  <path d="M0 660H1600V980H0V660Z" fill="url(#ground)"/>
  <path d="M0 692C188 650 334 704 504 714C710 726 858 652 1072 662C1292 672 1448 760 1600 742V980H0V692Z" fill="#B9D7B2"/>

  <g filter="url(#shadow)">
    <rect x="328" y="392" width="944" height="296" rx="28" fill="#F8FAFB"/>
    <rect x="878" y="438" width="300" height="198" rx="20" fill="#EDF2F4"/>
    <rect x="390" y="436" width="414" height="208" rx="18" fill="#FFFFFF"/>
    <rect x="420" y="468" width="154" height="126" rx="10" fill="url(#glass)"/>
    <rect x="610" y="468" width="154" height="126" rx="10" fill="url(#glass)"/>
    <path d="M592 392H328L560 280H804L592 392Z" fill="url(#roof)"/>
    <path d="M1272 392H592L804 280H1064L1272 392Z" fill="#25466B"/>
    <path d="M912 454H1142V688H912V454Z" fill="#1B3355"/>
    <rect x="948" y="508" width="162" height="180" rx="80" fill="#8B643D"/>
    <rect x="1014" y="592" width="28" height="18" rx="9" fill="#C7A478"/>
    <rect x="362" y="620" width="120" height="68" rx="18" fill="#E1E7EB"/>
    <rect x="496" y="620" width="120" height="68" rx="18" fill="#E1E7EB"/>
    <rect x="630" y="620" width="120" height="68" rx="18" fill="#E1E7EB"/>
    <rect x="780" y="438" width="32" height="250" rx="16" fill="#E5E9EC"/>

    <g transform="translate(648 312) rotate(-19)">
      <rect width="266" height="102" rx="10" fill="url(#panel)"/>
      <path d="M44 10V92M88 10V92M132 10V92M176 10V92M220 10V92" stroke="#8FCBE7" stroke-opacity="0.35" stroke-width="2"/>
      <path d="M8 34H258M8 68H258" stroke="#8FCBE7" stroke-opacity="0.35" stroke-width="2"/>
      <rect x="8" y="8" width="250" height="86" rx="8" stroke="#A9D4EA" stroke-opacity="0.44" stroke-width="2"/>
    </g>

    <g transform="translate(938 314) rotate(-19)">
      <rect width="228" height="98" rx="10" fill="url(#panel)"/>
      <path d="M38 10V88M76 10V88M114 10V88M152 10V88M190 10V88" stroke="#8FCBE7" stroke-opacity="0.35" stroke-width="2"/>
      <path d="M8 34H220M8 66H220" stroke="#8FCBE7" stroke-opacity="0.35" stroke-width="2"/>
      <rect x="8" y="8" width="212" height="82" rx="8" stroke="#A9D4EA" stroke-opacity="0.44" stroke-width="2"/>
    </g>
  </g>

  <g opacity="0.9">
    <ellipse cx="294" cy="734" rx="62" ry="42" fill="#6BA077"/>
    <ellipse cx="252" cy="760" rx="70" ry="44" fill="#78B285"/>
    <ellipse cx="1362" cy="724" rx="84" ry="50" fill="#76A97D"/>
    <ellipse cx="1314" cy="756" rx="92" ry="56" fill="#87BA8E"/>
    <ellipse cx="1208" cy="756" rx="54" ry="34" fill="#9CC7A4"/>
  </g>

  <path d="M216 796C448 754 736 746 1048 754C1218 758 1372 770 1464 784" stroke="#C7D2D9" stroke-width="18" stroke-linecap="round"/>
</svg>
